<mxfile host="Electron" modified="2025-06-12T12:55:24.937Z" agent="Mozilla/5.0 (X11; Linux x86_64) AppleWebKit/537.36 (KHTML, like Gecko) draw.io/22.1.16 Chrome/120.0.6099.109 Electron/28.1.0 Safari/537.36" etag="L4kzwsn1X9y1SNDOwGid" version="22.1.16" type="device">
  <diagram name="Pagina-1" id="Ofosbglu_JxE3AXKlMS3">
    <mxGraphModel dx="541" dy="290" grid="1" gridSize="10" guides="1" tooltips="1" connect="1" arrows="1" fold="1" page="1" pageScale="1" pageWidth="827" pageHeight="583" math="0" shadow="0">
      <root>
        <mxCell id="0" />
        <mxCell id="1" parent="0" />
        <mxCell id="JEvrSjgMdztlF5TXSsgz-17" value="" style="rounded=0;whiteSpace=wrap;html=1;fillColor=none;dashed=1;dashPattern=12 12;" vertex="1" parent="1">
          <mxGeometry x="80" y="80" width="680" height="130" as="geometry" />
        </mxCell>
        <mxCell id="JEvrSjgMdztlF5TXSsgz-1" value="&lt;font style=&quot;font-size: 15px;&quot;&gt;Python script&lt;/font&gt;" style="rounded=0;whiteSpace=wrap;html=1;fillColor=#0050ef;fontColor=#ffffff;strokeColor=none;" vertex="1" parent="1">
          <mxGeometry x="230" y="100" width="160" height="80" as="geometry" />
        </mxCell>
        <mxCell id="JEvrSjgMdztlF5TXSsgz-3" value="" style="endArrow=classic;html=1;rounded=0;" edge="1" parent="1">
          <mxGeometry width="50" height="50" relative="1" as="geometry">
            <mxPoint x="120" y="140" as="sourcePoint" />
            <mxPoint x="230" y="140" as="targetPoint" />
          </mxGeometry>
        </mxCell>
        <mxCell id="JEvrSjgMdztlF5TXSsgz-4" value="&lt;font style=&quot;font-size: 15px;&quot;&gt;Pre-compiled &lt;br&gt;binary firmware&lt;/font&gt;" style="text;html=1;align=center;verticalAlign=middle;resizable=0;points=[];autosize=1;strokeColor=none;fillColor=none;" vertex="1" parent="1">
          <mxGeometry x="90" y="90" width="130" height="50" as="geometry" />
        </mxCell>
        <mxCell id="JEvrSjgMdztlF5TXSsgz-6" value="" style="endArrow=classic;html=1;rounded=0;entryX=0;entryY=0.5;entryDx=0;entryDy=0;exitX=1;exitY=0.5;exitDx=0;exitDy=0;" edge="1" parent="1" source="JEvrSjgMdztlF5TXSsgz-1" target="JEvrSjgMdztlF5TXSsgz-10">
          <mxGeometry width="50" height="50" relative="1" as="geometry">
            <mxPoint x="365" y="180" as="sourcePoint" />
            <mxPoint x="465" y="180" as="targetPoint" />
          </mxGeometry>
        </mxCell>
        <mxCell id="JEvrSjgMdztlF5TXSsgz-8" value="&lt;font style=&quot;font-size: 15px;&quot;&gt;Publish firmware&amp;nbsp;&lt;br&gt;on &lt;b&gt;&quot;/firmware&quot;&lt;/b&gt;&amp;nbsp;topic&lt;/font&gt;" style="edgeLabel;html=1;align=center;verticalAlign=middle;resizable=0;points=[];" vertex="1" connectable="0" parent="JEvrSjgMdztlF5TXSsgz-6">
          <mxGeometry x="-0.0657" y="2" relative="1" as="geometry">
            <mxPoint y="-23" as="offset" />
          </mxGeometry>
        </mxCell>
        <mxCell id="JEvrSjgMdztlF5TXSsgz-7" value="&lt;font style=&quot;font-size: 15px;&quot;&gt;STM32H7 (Domain Controller)&lt;/font&gt;" style="rounded=0;whiteSpace=wrap;html=1;strokeColor=none;fillColor=#e51400;fontColor=#ffffff;" vertex="1" parent="1">
          <mxGeometry x="220" y="260" width="160" height="80" as="geometry" />
        </mxCell>
        <mxCell id="JEvrSjgMdztlF5TXSsgz-10" value="&lt;font style=&quot;font-size: 15px;&quot;&gt;MOSQUITTO Broker&lt;/font&gt;" style="rounded=0;whiteSpace=wrap;html=1;fillColor=#008a00;fontColor=#ffffff;strokeColor=none;" vertex="1" parent="1">
          <mxGeometry x="560" y="100" width="160" height="80" as="geometry" />
        </mxCell>
        <mxCell id="JEvrSjgMdztlF5TXSsgz-11" value="" style="endArrow=none;html=1;rounded=0;entryX=1;entryY=0.5;entryDx=0;entryDy=0;exitX=0.5;exitY=1;exitDx=0;exitDy=0;startArrow=classic;startFill=1;endFill=0;" edge="1" parent="1" source="JEvrSjgMdztlF5TXSsgz-10" target="JEvrSjgMdztlF5TXSsgz-7">
          <mxGeometry width="50" height="50" relative="1" as="geometry">
            <mxPoint x="465" y="270" as="sourcePoint" />
            <mxPoint x="515" y="220" as="targetPoint" />
          </mxGeometry>
        </mxCell>
        <mxCell id="JEvrSjgMdztlF5TXSsgz-12" value="&lt;font style=&quot;font-size: 15px;&quot;&gt;Subscribe to &lt;b&gt;&quot;/firmware&quot; &lt;br&gt;&lt;/b&gt;topic and receive the firmware&lt;/font&gt;" style="edgeLabel;html=1;align=center;verticalAlign=middle;resizable=0;points=[];" vertex="1" connectable="0" parent="JEvrSjgMdztlF5TXSsgz-11">
          <mxGeometry x="0.147" relative="1" as="geometry">
            <mxPoint x="100" y="21" as="offset" />
          </mxGeometry>
        </mxCell>
        <mxCell id="JEvrSjgMdztlF5TXSsgz-13" value="&lt;font style=&quot;font-size: 15px;&quot;&gt;STM32F4 (MCU Node)&lt;/font&gt;" style="rounded=0;whiteSpace=wrap;html=1;fillColor=#e3c800;fontColor=#000000;strokeColor=none;" vertex="1" parent="1">
          <mxGeometry x="220" y="450" width="160" height="80" as="geometry" />
        </mxCell>
        <mxCell id="JEvrSjgMdztlF5TXSsgz-14" value="" style="endArrow=classic;html=1;rounded=0;exitX=0.5;exitY=1;exitDx=0;exitDy=0;entryX=0.5;entryY=0;entryDx=0;entryDy=0;" edge="1" parent="1" source="JEvrSjgMdztlF5TXSsgz-7" target="JEvrSjgMdztlF5TXSsgz-13">
          <mxGeometry width="50" height="50" relative="1" as="geometry">
            <mxPoint x="299.62" y="350" as="sourcePoint" />
            <mxPoint x="299.62" y="410" as="targetPoint" />
          </mxGeometry>
        </mxCell>
        <mxCell id="JEvrSjgMdztlF5TXSsgz-15" value="&lt;font style=&quot;font-size: 15px;&quot;&gt;Send firmware on CAN BUS&lt;br&gt;divided on different CAN frames&amp;nbsp;&lt;/font&gt;" style="edgeLabel;html=1;align=center;verticalAlign=middle;resizable=0;points=[];" vertex="1" connectable="0" parent="JEvrSjgMdztlF5TXSsgz-14">
          <mxGeometry x="-0.319" y="-2" relative="1" as="geometry">
            <mxPoint x="122" y="12" as="offset" />
          </mxGeometry>
        </mxCell>
        <mxCell id="JEvrSjgMdztlF5TXSsgz-18" value="&lt;font style=&quot;font-size: 18px;&quot;&gt;MPU Board&lt;/font&gt;" style="text;html=1;align=center;verticalAlign=middle;resizable=0;points=[];autosize=1;strokeColor=none;fillColor=none;" vertex="1" parent="1">
          <mxGeometry x="70" y="40" width="120" height="40" as="geometry" />
        </mxCell>
      </root>
    </mxGraphModel>
  </diagram>
</mxfile>
